<svg width="32" height="32" viewBox="0 0 32 32" fill="none" xmlns="http://www.w3.org/2000/svg">
<path d="M27.478 6.3325C27.309 6.1645 27.11 6.08 26.88 6.08C26.7655 6.08 26.524 6.174 26.157 6.3595C25.7895 6.5455 25.3995 6.7525 24.989 6.9835C24.5775 7.213 24.0905 7.421 23.5285 7.607C22.967 7.7925 22.447 7.8865 21.9685 7.8865C21.5265 7.8865 21.1365 7.8025 20.8005 7.634C19.686 7.112 18.7165 6.7225 17.8935 6.4655C17.0705 6.209 16.1855 6.08 15.238 6.08C13.602 6.08 11.7385 6.612 9.6495 7.674C9.2185 7.889 8.9095 8.0555 8.7095 8.1775L8.511 6.722C8.9595 6.3325 9.249 5.765 9.249 5.1245C9.249 3.951 8.298 3 7.1245 3C5.951 3 5 3.951 5 5.1245C5 5.89 5.409 6.5555 6.016 6.9295L8.886 27.9745C8.9715 28.601 9.5075 29.0555 10.123 29.0555C10.179 29.0555 10.236 29.052 10.2935 29.0445C10.9775 28.9505 11.4565 28.321 11.363 27.637L10.2095 19.1785C12.3025 18.14 14.113 17.6165 15.636 17.6165C16.2825 17.6165 16.913 17.713 17.5275 17.908C18.1425 18.1035 18.654 18.3155 19.061 18.545C19.468 18.775 19.9485 18.988 20.501 19.182C21.0545 19.377 21.601 19.4745 22.1405 19.4745C23.5035 19.4745 25.136 18.961 27.0385 17.9345C27.2775 17.8105 27.4525 17.6885 27.563 17.569C27.6735 17.4495 27.729 17.2795 27.729 17.0585V6.93C27.729 6.7005 27.6455 6.501 27.478 6.3325Z" fill="#F0145A"/>
</svg>
